<svg version="1.1" id="Layer_1" xmlns="http://www.w3.org/2000/svg" xmlns:xlink="http://www.w3.org/1999/xlink" x="0px" y="0px"
	 width="100%" viewBox="0 0 352 352" enable-background="new 0 0 352 352" xml:space="preserve">
<path fill="#000000" opacity="1.000000" stroke="none" 
	d="
M103.033981,256.974121 
	C81.368637,237.077606 64.051598,214.553925 54.304756,186.847702 
	C46.532154,164.753433 44.495289,142.347046 52.746712,119.942589 
	C60.256817,99.550980 73.923393,85.251091 95.915855,81.088432 
	C114.002319,77.665092 130.459351,83.168594 145.767197,92.645493 
	C154.159027,97.840767 161.742249,104.068718 168.798828,110.955711 
	C169.969925,112.098671 170.933487,113.536354 172.930817,114.100166 
	C175.992065,112.343819 178.331131,109.484596 181.001755,107.034790 
	C194.077560,95.040161 208.566681,85.486572 226.170776,81.653519 
	C256.965881,74.948311 281.762207,91.513237 292.194153,118.400322 
	C293.630127,122.101318 294.654297,125.987579 295.566864,129.859299 
	C296.563995,134.089722 295.051575,135.753662 290.785645,135.648422 
	C286.292694,135.537582 281.781616,135.142075 277.311035,135.411530 
	C272.116760,135.724579 269.073120,133.743240 266.786682,128.994110 
	C260.703461,116.358650 250.948685,108.160767 236.652634,106.337677 
	C226.556259,105.050156 216.771133,106.645248 207.195862,109.964371 
	C196.747635,113.586075 186.889908,118.456314 177.771439,124.623611 
	C173.916138,127.231148 171.218109,126.886131 167.532745,124.517517 
	C155.154266,116.561760 142.128128,109.900139 127.489326,107.111282 
	C95.323601,100.983360 77.873123,118.608238 73.444351,146.306458 
	C69.118225,173.362762 76.313812,198.111008 90.638641,220.959900 
	C110.165352,252.106079 136.709244,276.389282 166.372940,297.556427 
	C167.881439,298.632843 170.062683,299.144440 170.427063,302.518188 
	C145.952850,289.724487 123.330528,275.421570 103.033981,256.974121 
z"/>
<path fill="#000000" opacity="1.000000" stroke="none" 
	d="
M277.353119,198.657761 
	C278.954590,201.215042 280.794128,203.348755 281.564362,205.816238 
	C285.988800,219.989639 292.306213,233.400665 297.768921,247.155289 
	C300.345215,253.642120 300.703064,260.399719 298.061066,267.126404 
	C293.563629,278.577362 285.738007,283.492523 273.725891,280.931213 
	C255.508865,277.046844 237.760727,271.329224 219.971924,265.831757 
	C219.024338,265.538910 218.140701,265.037231 217.230377,264.625946 
	C202.228104,257.847595 198.691467,241.309128 209.590836,228.810089 
	C213.470367,224.361160 218.264420,220.999466 223.255310,217.984894 
	C232.128998,212.625031 240.399384,206.544327 248.070862,199.536713 
	C257.972229,190.492142 266.297241,190.342972 277.353119,198.657761 
z"/>
<path fill="#000000" opacity="1.000000" stroke="none" 
	d="
M256.190002,137.872101 
	C266.401245,138.767838 269.652039,141.880554 270.151825,152.125839 
	C270.523621,159.748001 270.717529,167.402878 269.412018,175.037796 
	C267.490509,186.275497 260.180176,190.611755 249.546021,186.457352 
	C239.937866,182.703735 233.084457,171.969147 233.915039,161.974319 
	C234.952499,149.489975 242.054291,140.889084 253.334000,138.452957 
	C254.146896,138.277405 254.956284,138.085632 256.190002,137.872101 
z"/>
<path fill="#000000" opacity="1.000000" stroke="none" 
	d="
M279.026123,174.247772 
	C282.351013,167.858414 285.876495,162.016144 289.941711,156.554031 
	C296.205475,148.137909 302.883118,147.521729 310.552856,154.812500 
	C317.202423,161.133514 319.485992,169.085968 317.228333,178.007812 
	C314.812744,187.553741 308.877319,194.110107 299.396515,197.129593 
	C296.400726,198.083694 293.277985,198.643387 290.063263,198.124710 
	C276.500580,195.936417 272.769592,188.121017 279.026123,174.247772 
z"/>
<path fill="#000000" opacity="1.000000" stroke="none" 
	d="
M228.306519,189.839981 
	C229.479614,200.531128 222.848999,206.308075 212.746017,203.831619 
	C204.207306,201.738586 198.062485,194.844604 196.776917,185.915634 
	C195.650208,178.090027 199.548569,169.874619 206.060196,166.351990 
	C213.068985,162.560440 218.284454,163.980148 221.697815,171.145950 
	C224.483994,176.995071 226.735046,183.103928 228.306519,189.839981 
z"/>
<path fill="#000000" opacity="1.000000" stroke="none" 
	d="
M317.134613,232.378296 
	C313.387238,232.435593 310.483856,231.228485 307.840637,229.410446 
	C300.400726,224.293106 299.666107,217.998352 305.844666,211.424667 
	C309.966949,207.038773 314.843201,203.514282 319.832611,200.194443 
	C329.555725,193.724823 338.323425,198.127258 339.316223,209.891769 
	C340.370636,222.386566 330.966888,232.118484 317.134613,232.378296 
z"/>
<path fill="#000000" opacity="1.000000" stroke="none" 
	d="
M200.188324,288.256897 
	C192.205582,292.791992 184.546738,297.162842 176.868912,301.500092 
	C176.340424,301.798676 175.672867,302.190125 175.035629,301.503296 
	C174.818375,299.976135 176.195480,299.672577 177.068954,299.088593 
	C189.427277,290.825989 200.798065,281.330170 211.830444,271.404022 
	C213.041107,270.314758 214.111359,268.719574 215.966949,268.889465 
	C218.204498,269.094391 220.335312,270.174225 221.232544,272.185211 
	C222.251953,274.469940 219.804001,275.318024 218.429398,276.255371 
	C212.516312,280.287659 206.491684,284.156372 200.188324,288.256897 
z"/>
</svg>